# xmcd CD database file
#
# Track frame offsets:
#	150
#	12520
#	22477
#	39687
#	51075
#	62950
#	77562
#	89545
#	103790
#	116552
#	129837
#	147885
#	161230
#	172425
#	185665
#
# Disc length: 2636 seconds
#
# Revision: 0
# Processed by: cddbd v1.5.2PL0 Copyright (c) Steve Scherf et al.
# Submitted via: CDex 1.51
#
DISCID=e00a4a0f
DTITLE=Various Artist - Super Box Of Country
DYEAR=1995
DGENRE=Country
TTITLE0=Merle Haggard - Okie From Muskogee
TTITLE1=Ray Stevens - Turn Your Radio On
TTITLE2=Ray Price - For The Good Times
TTITLE3=Ernie Ashworth - Talk Back Trembling Lips
TTITLE4=Skeeter Davis - I Can't Help You (I'm Falling Too)
TTITLE5=Lee Greenwood - God Bless The USA
TTITLE6=Jack Greene - All The Time
TTITLE7=Bob Luman - Lonely Women Make Good Lovers
TTITLE8=Ace Cannon - The Most Beautiful Girl
TTITLE9=Wanda Jackson - I Fall To Pieces
TTITLE10=Johnny Bush - You Gave Me A Mountain
TTITLE11=Wilma Lee Cooper - Wreck On The Highway
TTITLE12='Little' Jimmy Dickens - May The Bird Of Paradise Fly Up Your Nose
TTITLE13=Bobby Helms - My Special Angel
TTITLE14=Slim Whitman - I'll Fly Away
EXTD=YEAR: 1995
EXTT0=
EXTT1=
EXTT2=
EXTT3=
EXTT4=
EXTT5=
EXTT6=
EXTT7=
EXTT8=
EXTT9=
EXTT10=
EXTT11=
EXTT12=
EXTT13=
EXTT14=
PLAYORDER=
